External Loads File
version=1
nRows=77
nColumns=13
Range=5.000000e-03-10 seconds
endheader
time 	forceRightX 	forceRightY 	forceRightZ 	pointRightX 	pointRightY 	pointRightZ 	forceLeftX 	forceLeftY 	forceLeftZ 	pointLeftX 	pointLeftY 	pointLeftZ 		
2.505000 106.195277 556.618506 -0.000000 0.283327 0.181351 -0.120144 -62.629924 -149.610053 -0.000000 0.117564 0.438166 -0.360416
2.510000 121.364946 562.019640 -0.000000 0.275432 0.174419 -0.120021 -90.413546 -176.840809 -0.000000 0.126519 0.444339 -0.361204
2.515000 136.219858 567.525588 -0.000000 0.267150 0.168050 -0.120032 -116.788659 -200.835698 -0.000000 0.135323 0.450418 -0.361117
2.520000 150.726939 571.945326 -0.000000 0.258664 0.162240 -0.119930 -140.318919 -220.025592 -0.000000 0.144305 0.456028 -0.361466
2.525000 163.786906 574.280610 -0.000000 0.250185 0.157173 -0.119725 -159.266525 -233.562277 -0.000000 0.153059 0.461227 -0.361812
2.530000 176.534647 572.914609 -0.000000 0.241445 0.152667 -0.119699 -173.142832 -240.623715 -0.000000 0.161919 0.466277 -0.361900
2.535000 187.370486 567.095981 -0.000000 0.232806 0.148464 -0.119664 -180.927174 -241.753742 -0.000000 0.170542 0.470589 -0.362030
2.540000 197.014354 555.562244 -0.000000 0.223993 0.145017 -0.119171 -183.202216 -237.343747 -0.000000 0.179213 0.474785 -0.362007
2.545000 204.329328 537.923762 -0.000000 0.215299 0.142578 -0.119023 -180.349268 -228.720110 -0.000000 0.187807 0.478547 -0.361880
2.550000 209.591944 513.617849 -0.000000 0.206788 0.140466 -0.119359 -173.760934 -216.891816 -0.000000 0.196658 0.482413 -0.362283
2.555000 211.842199 482.939839 -0.000000 0.198284 0.138543 -0.119555 -164.497511 -203.239314 -0.000000 0.205196 0.484828 -0.362782
2.560000 211.649178 445.983408 -0.000000 0.189883 0.138189 -0.119851 -154.259734 -188.479450 -0.000000 0.213935 0.486632 -0.362558
2.565000 208.499904 403.718497 -0.000000 0.181612 0.137957 -0.119896 -144.116575 -173.523221 -0.000000 0.222641 0.487871 -0.362854
2.570000 202.326938 357.338608 -0.000000 0.173593 0.137794 -0.119996 -135.019094 -158.960261 -0.000000 0.231418 0.488383 -0.363162
2.575000 193.446628 308.193857 -0.000000 0.165712 0.138368 -0.120015 -127.699572 -145.027698 -0.000000 0.240190 0.488024 -0.363480
2.580000 182.038256 258.003701 -0.000000 0.158139 0.139761 -0.119875 -122.390296 -131.756008 -0.000000 0.248869 0.486682 -0.363610
2.585000 168.481916 208.588742 -0.000000 0.150836 0.141452 -0.119720 -118.974087 -118.911205 -0.000000 0.257295 0.484624 -0.363855
2.590000 153.612967 161.484838 -0.000000 0.143657 0.143760 -0.120064 -117.265693 -105.965217 -0.000000 0.265478 0.482114 -0.364036
2.595000 138.023841 118.301776 -0.000000 0.136845 0.146544 -0.119988 -116.814187 -92.581426 -0.000000 0.273305 0.479420 -0.364219
2.600000 122.702634 79.920341 -0.000000 0.130181 0.149831 -0.120006 -117.510501 -78.119939 -0.000000 0.280624 0.475372 -0.364372
2.605000 108.144820 47.309362 -0.000000 0.123663 0.153659 -0.119859 -119.068887 -62.340895 -0.000000 0.287392 0.471969 -0.364458
2.610000 95.049431 20.477821 -0.000000 0.117423 0.158048 -0.119889 -121.740024 -44.400615 -0.000000 0.293668 0.467454 -0.364365
2.615000 83.700230 -0.602861 -0.000000 0.111391 0.162920 -0.119914 -125.789466 -23.624697 -0.000000 0.299418 0.462295 -0.364448
2.620000 74.213544 -16.225840 -0.000000 0.105593 0.168228 -0.120000 -131.682127 0.806252 -0.000000 0.304602 0.456453 -0.364334
2.625000 66.521771 -26.861383 -0.000000 0.099985 0.174143 -0.119971 -139.887502 29.857661 -0.000000 0.309300 0.449909 -0.364523
2.630000 60.501248 -32.955493 -0.000000 0.094747 0.180546 -0.120027 -150.714789 64.194207 -0.000000 0.313415 0.442657 -0.364969
2.635000 56.008402 -35.099830 -0.000000 0.089781 0.187443 -0.120140 -164.141768 104.321026 -0.000000 0.317195 0.434905 -0.364881
2.640000 53.003882 -33.834128 -0.000000 0.085121 0.194630 -0.120214 -180.017188 149.873237 -0.000000 0.320249 0.426835 -0.364915
2.645000 51.314819 -30.014676 -0.000000 0.080814 0.202779 -0.120233 -197.383645 200.566571 -0.000000 0.322995 0.418315 -0.365122
2.650000 50.884621 -24.364332 -0.000000 0.076871 0.210798 -0.120357 -215.611076 254.827840 -0.000000 0.325453 0.409017 -0.365297
2.655000 51.527535 -17.835295 -0.000000 0.073370 0.219547 -0.120343 -233.053312 311.419873 -0.000000 0.327808 0.399017 -0.365549
2.660000 53.097070 -11.215047 -0.000000 0.070340 0.228540 -0.120401 -248.227069 368.425414 -0.000000 0.329829 0.387893 -0.366146
2.665000 55.377268 -4.984329 -0.000000 0.067703 0.238003 -0.120489 -260.885926 422.980340 -0.000000 0.331567 0.377288 -0.366249
2.670000 58.002141 0.322870 -0.000000 0.065593 0.247877 -0.120575 -269.161816 473.465841 -0.000000 0.332928 0.366466 -0.366595
2.675000 60.609543 4.544216 -0.000000 0.064000 0.257923 -0.120706 -272.470223 517.867664 -0.000000 0.334004 0.355566 -0.366575
2.680000 62.857162 7.710216 -0.000000 0.062935 0.268190 -0.120764 -270.611196 554.762276 -0.000000 0.334531 0.344647 -0.367178
2.685000 64.479101 9.999212 -0.000000 0.062496 0.278438 -0.121020 -263.934363 583.402550 -0.000000 0.334812 0.333607 -0.367185
2.690000 65.314754 11.697433 -0.000000 0.062772 0.288797 -0.121339 -253.791684 603.547483 -0.000000 0.334518 0.322824 -0.367292
2.695000 65.338020 12.930841 -0.000000 0.063849 0.299077 -0.121407 -240.741576 616.093310 -0.000000 0.333910 0.312050 -0.367286
2.700000 64.581705 13.808660 -0.000000 0.065357 0.309221 -0.121521 -226.187011 622.061596 -0.000000 0.332954 0.301548 -0.367115
2.705000 63.117003 14.169384 -0.000000 0.067644 0.319229 -0.121578 -210.219603 623.207411 -0.000000 0.331730 0.291084 -0.367339
2.710000 61.250265 12.343230 -0.000000 0.070662 0.329079 -0.121120 -178.910213 625.467306 -0.000000 0.320794 0.276308 -0.355929
2.715000 58.271217 10.611902 -0.000000 0.074434 0.338730 -0.121061 -158.940982 622.060045 -0.000000 0.318168 0.265816 -0.355465
2.720000 54.118422 7.529313 -0.000000 0.078353 0.348351 -0.121656 -140.254614 617.805170 -0.000000 0.315270 0.256209 -0.355848
2.725000 48.393916 2.495560 -0.000000 0.083190 0.357574 -0.121743 -119.707814 614.385900 -0.000000 0.312059 0.246050 -0.356471
2.730000 40.529640 -4.709173 -0.000000 0.087962 0.366812 -0.122735 -95.229418 612.470814 -0.000000 0.308454 0.234298 -0.357213
2.735000 30.147174 -13.331861 -0.000000 0.093884 0.375947 -0.123089 -76.735060 610.685684 -0.000000 0.304459 0.226180 -0.358020
2.740000 17.235018 -23.515501 -0.000000 0.100733 0.384478 -0.123133 -62.540999 609.883576 -0.000000 0.300043 0.220770 -0.358899
2.745000 1.449259 -35.282821 -0.000000 0.107909 0.392890 -0.123442 -40.933416 611.281179 -0.000000 0.295246 0.211896 -0.359849
2.750000 -17.033678 -47.694559 -0.000000 0.115499 0.401021 -0.123819 -14.493440 613.869135 -0.000000 0.290018 0.200103 -0.360804
2.755000 -37.112445 -60.302031 -0.000000 0.123533 0.408816 -0.124154 9.747518 616.830682 -0.000000 0.284321 0.189321 -0.361794
2.760000 -57.216754 -73.384007 -0.000000 0.131949 0.416478 -0.124444 27.513965 620.162737 -0.000000 0.278180 0.183479 -0.362696
2.765000 -76.458735 -86.806062 -0.000000 0.140440 0.423682 -0.124791 42.625936 623.647070 -0.000000 0.271578 0.180146 -0.363584
2.770000 -94.889783 -99.356873 -0.000000 0.149201 0.430511 -0.125177 62.480675 626.236147 -0.000000 0.264391 0.173627 -0.364463
2.775000 -111.625397 -110.641063 -0.000000 0.158053 0.437263 -0.125549 85.003003 627.131226 -0.000000 0.256780 0.163993 -0.365088
2.780000 -125.150711 -121.233100 -0.000000 0.167328 0.443611 -0.125363 104.426180 626.202004 -0.000000 0.248649 0.158595 -0.365451
2.785000 -135.356535 -130.544330 -0.000000 0.176093 0.449523 -0.126129 122.237109 622.426736 -0.000000 0.239997 0.154201 -0.365584
2.790000 -142.385544 -137.813222 -0.000000 0.185495 0.454977 -0.126167 139.642276 614.546363 -0.000000 0.230817 0.154204 -0.365371
2.795000 -146.187470 -142.574756 -0.000000 0.194530 0.459719 -0.127063 156.145353 601.552418 -0.000000 0.221731 0.150881 -0.365089
2.800000 -146.756574 -144.519369 -0.000000 0.203763 0.464006 -0.127563 171.054586 582.553234 -0.000000 0.212525 0.148315 -0.364835
2.805000 -143.909631 -143.862961 -0.000000 0.212681 0.467310 -0.128103 182.550529 557.173163 -0.000000 0.203425 0.146300 -0.364586
2.810000 -138.164871 -140.553972 -0.000000 0.221769 0.470072 -0.128435 190.976799 524.687043 -0.000000 0.194499 0.145010 -0.364364
2.815000 -130.068661 -134.939804 -0.000000 0.230888 0.472050 -0.128674 195.967310 485.001715 -0.000000 0.185516 0.144412 -0.364179
2.820000 -120.159718 -127.640440 -0.000000 0.239940 0.473211 -0.128765 196.633836 438.905008 -0.000000 0.176664 0.144376 -0.363979
2.825000 -109.095455 -119.221354 -0.000000 0.248919 0.473646 -0.128690 192.434015 387.833416 -0.000000 0.168251 0.145080 -0.363711
2.830000 -97.731093 -109.948268 -0.000000 0.257744 0.473383 -0.128442 183.741188 333.434258 -0.000000 0.159989 0.146347 -0.363493
2.835000 -86.737122 -100.013691 -0.000000 0.266298 0.472381 -0.128088 170.836714 277.786999 -0.000000 0.152028 0.148347 -0.363297
2.840000 -76.707810 -89.372404 -0.000000 0.274466 0.470539 -0.127580 154.442495 222.910347 -0.000000 0.144404 0.150852 -0.363001
2.845000 -68.234157 -77.659088 -0.000000 0.282471 0.467864 -0.127368 135.849926 170.410791 -0.000000 0.137061 0.153981 -0.362694
2.850000 -61.609603 -64.413751 -0.000000 0.290256 0.464569 -0.126752 116.132017 121.821861 -0.000000 0.129943 0.157603 -0.362335
2.855000 -56.982586 -48.971025 -0.000000 0.297481 0.460571 -0.126343 96.458860 78.248950 -0.000000 0.122895 0.161825 -0.362234
2.860000 -54.369311 -30.539412 -0.000000 0.304166 0.455867 -0.125877 77.859582 40.395679 -0.000000 0.116013 0.166481 -0.361760
2.865000 -53.705241 -8.245108 -0.000000 0.310140 0.450410 -0.125528 61.102903 8.558237 -0.000000 0.109255 0.171716 -0.361110
2.870000 -54.781822 18.755783 -0.000000 0.315740 0.444160 -0.125020 46.560420 -17.236442 -0.000000 0.102865 0.177494 -0.360510
2.875000 -57.183638 51.134740 -0.000000 0.320516 0.436704 -0.123958 34.248460 -37.089692 -0.000000 0.096698 0.183867 -0.360069
2.880000 -60.602568 89.080998 -0.000000 0.324571 0.429373 -0.123467 24.170084 -51.110228 -0.000000 0.090928 0.190696 -0.359905
2.885000 -64.917955 132.574120 -0.000000 0.327797 0.422104 -0.123144 16.295930 -59.663880 -0.000000 0.085573 0.197872 -0.359538
